<svg width="20" height="14" viewBox="0 0 20 14" fill="none" xmlns="http://www.w3.org/2000/svg">
<path d="M2.0001 13.2249C1.68343 13.2249 1.41276 13.1166 1.1881 12.8999C0.962764 12.6832 0.850098 12.4166 0.850098 12.0999C0.850098 11.7666 0.962764 11.4916 1.1881 11.2749C1.41276 11.0582 1.68343 10.9499 2.0001 10.9499H18.0001C18.3168 10.9499 18.5874 11.0582 18.8121 11.2749C19.0374 11.4916 19.1501 11.7666 19.1501 12.0999C19.1501 12.4166 19.0374 12.6832 18.8121 12.8999C18.5874 13.1166 18.3168 13.2249 18.0001 13.2249H2.0001ZM2.0001 8.1499C1.68343 8.1499 1.41276 8.03724 1.1881 7.8119C0.962764 7.58724 0.850098 7.31657 0.850098 6.9999C0.850098 6.68324 0.962764 6.41257 1.1881 6.1879C1.41276 5.96257 1.68343 5.8499 2.0001 5.8499H18.0001C18.3168 5.8499 18.5874 5.96257 18.8121 6.1879C19.0374 6.41257 19.1501 6.68324 19.1501 6.9999C19.1501 7.31657 19.0374 7.58724 18.8121 7.8119C18.5874 8.03724 18.3168 8.1499 18.0001 8.1499H2.0001ZM2.0001 3.0499C1.68343 3.0499 1.41276 2.94157 1.1881 2.7249C0.962764 2.50824 0.850098 2.23324 0.850098 1.8999C0.850098 1.58324 0.962764 1.31657 1.1881 1.0999C1.41276 0.883235 1.68343 0.774902 2.0001 0.774902H18.0001C18.3168 0.774902 18.5874 0.883235 18.8121 1.0999C19.0374 1.31657 19.1501 1.58324 19.1501 1.8999C19.1501 2.23324 19.0374 2.50824 18.8121 2.7249C18.5874 2.94157 18.3168 3.0499 18.0001 3.0499H2.0001Z" fill="white"/>
</svg>
