<svg width="25" height="28" viewBox="0 0 25 28" fill="none" xmlns="http://www.w3.org/2000/svg">
<path d="M12.015 26.5594C11.3905 26.5594 10.8254 26.4099 10.2901 26.081L2.23054 21.4167C1.1599 20.7888 0.505615 19.6526 0.505615 18.3969V9.03843C0.505615 7.81256 1.1599 6.64649 2.23054 6.0186L10.2901 1.32442C11.3608 0.696546 12.6693 0.696546 13.74 1.32442L21.7995 6.0186C22.8702 6.64649 23.5245 7.78266 23.5245 9.03843V18.3969C23.5245 19.6228 22.8702 20.7888 21.7995 21.4167L13.74 26.081C13.2046 26.38 12.6396 26.5594 12.015 26.5594Z" fill="url(#paint0_linear_343_314)"/>
<path d="M16.2538 16.7909C16.4279 16.1884 16.1983 15.5915 15.7408 15.4579C15.2834 15.3243 14.7714 15.7045 14.5973 16.3071C14.4232 16.9097 14.6528 17.5065 15.1102 17.6401C15.5676 17.7737 16.0796 17.3935 16.2538 16.7909Z" fill="#4F4F4F"/>
<path d="M21.9551 13.4819C22.1292 12.8793 21.8996 12.2825 21.4421 12.1489C20.9847 12.0153 20.4727 12.3954 20.2986 12.998C20.1244 13.6006 20.3541 14.1974 20.8115 14.331C21.2689 14.4646 21.7809 14.0845 21.9551 13.4819Z" fill="#4F4F4F"/>
<path d="M18.9147 19.4734C19.2121 19.294 19.3608 18.9352 19.2716 18.6063C19.2419 18.397 19.0337 18.2176 18.7958 18.2475C18.7363 18.2475 18.6768 18.2774 18.6173 18.3073C18.3199 18.4867 18.1712 18.8455 18.2605 19.1744C18.2902 19.3837 18.4984 19.5631 18.7363 19.5332C18.8255 19.5332 18.885 19.5332 18.9147 19.4734ZM20.5505 18.5465C20.8479 18.3671 20.9966 18.0083 20.9073 17.6794C20.8776 17.4701 20.6694 17.2908 20.4315 17.3207C20.372 17.3207 20.3125 17.3506 20.2531 17.3805C19.9556 17.5599 19.807 17.9186 19.8962 18.2475C19.9259 18.4568 20.1341 18.6362 20.372 18.6063C20.4315 18.6063 20.5207 18.5764 20.5505 18.5465Z" fill="#4F4F4F"/>
<path d="M21.0262 15.9752L19.9853 15.6164C19.6582 15.5566 19.3013 15.6164 18.9742 15.7958L17.279 16.7825C16.4165 17.3506 15.9704 18.4269 16.2083 19.4734C16.2678 19.9518 16.595 20.3106 17.0411 20.49L18.0225 20.8189C17.6359 20.6096 17.3385 20.2508 17.279 19.8023C17.0708 18.7858 17.4872 17.7094 18.3496 17.1114L20.0448 16.1247C20.3125 15.9752 20.6991 15.8855 21.0262 15.9752Z" fill="#4F4F4F"/>
<path d="M10.7362 6.04858C10.7957 6.04858 10.8254 6.04858 10.8849 6.04858C11.0038 6.04858 11.1228 6.04858 11.2418 6.10839C11.331 6.13829 11.3905 6.1682 11.45 6.19809C11.5689 6.25789 11.6879 6.34758 11.8068 6.40738C11.9555 6.49708 12.1042 6.58678 12.2529 6.67647C12.3422 6.73628 12.4611 6.79606 12.5503 6.85587C12.699 6.94556 12.818 7.00536 12.9667 7.09507C13.1154 7.18476 13.2344 7.24456 13.383 7.33426C13.5317 7.42395 13.6805 7.51365 13.8589 7.60335C14.0076 7.69304 14.1563 7.78274 14.305 7.87244C14.4834 7.96213 14.6321 8.08173 14.8106 8.17143C14.9593 8.26113 14.989 8.44052 14.87 8.59001C14.8106 8.64982 14.7214 8.70961 14.6321 8.7395C14.5132 8.76941 14.3942 8.79931 14.2753 8.79931C14.1266 8.79931 14.0076 8.79931 13.8886 8.7395C13.7994 8.7096 13.7102 8.64981 13.621 8.6199C13.502 8.5601 13.3831 8.47041 13.2641 8.41061C13.1154 8.32091 12.9667 8.23121 12.7883 8.14152C12.6396 8.05182 12.5206 7.99202 12.3719 7.90232C12.2232 7.81262 12.1042 7.75282 11.9555 7.66313C11.8366 7.57343 11.6879 7.51364 11.5689 7.42393C11.4202 7.33423 11.3013 7.27444 11.1526 7.18474C11.0039 7.09504 10.8849 7.03525 10.7362 6.94554C10.5875 6.85584 10.4686 6.79605 10.3199 6.70634C10.2604 6.67644 10.2307 6.64654 10.1712 6.58675C10.082 6.49706 10.1117 6.34755 10.1712 6.25786C10.2604 6.13827 10.3794 6.10837 10.4983 6.07846C10.6172 6.07849 10.6767 6.04858 10.7362 6.04858Z" fill="#4F4F4F"/>
<defs>
<linearGradient id="paint0_linear_343_314" x1="16.7352" y1="-0.275457" x2="1.48604" y2="25.8324" gradientUnits="userSpaceOnUse">
<stop stop-color="#6684F9"/>
<stop offset="0.504278" stop-color="#E3A2D8"/>
<stop offset="1" stop-color="#FFB989"/>
</linearGradient>
</defs>
</svg>
