<svg width="40" height="40" viewBox="0 0 40 40" fill="none" xmlns="http://www.w3.org/2000/svg">
<path d="M22.1716 21.3025C22.1748 21.28 22.1785 21.2572 22.1811 21.2347C22.1838 21.2122 22.1857 21.1886 22.1875 21.1658C22.1915 21.1232 22.1939 21.0806 22.1957 21.0385C22.1957 21.0197 22.1957 21.0012 22.197 20.9827C22.197 20.9691 22.1986 20.9561 22.1986 20.9426C22.1986 20.9342 22.1986 20.9262 22.1986 20.9178C22.1986 20.8706 22.196 20.8235 22.1928 20.7764C22.1928 20.7661 22.1915 20.7563 22.1907 20.7459L22.1885 20.7226C22.1872 20.7025 22.1859 20.6827 22.184 20.6631C22.1788 20.6167 22.1719 20.5709 22.1642 20.5251L22.1616 20.5108L22.1547 20.4732C22.1507 20.4515 22.1475 20.4301 22.143 20.4092C22.134 20.3679 22.1237 20.327 22.1126 20.2865L22.1067 20.2664L22.0996 20.2399C22.0919 20.2134 22.085 20.187 22.0765 20.1605C22.0657 20.1267 22.0532 20.093 22.0408 20.0586C22.0352 20.0438 22.0292 20.029 22.0233 20.0144C22.0112 19.9837 22 19.9524 21.9868 19.9222C21.9736 19.892 21.9617 19.8675 21.9487 19.8402C21.9384 19.819 21.9275 19.7983 21.9169 19.7777C21.9034 19.7512 21.8904 19.7247 21.8756 19.6982C21.869 19.6861 21.8634 19.6736 21.8568 19.6615C21.8502 19.6493 21.8409 19.6384 21.8338 19.6265C21.8184 19.6 21.802 19.5762 21.7856 19.551C21.7731 19.5312 21.7604 19.5115 21.7475 19.4925C21.7305 19.4676 21.713 19.4422 21.6945 19.4173C21.676 19.3924 21.6537 19.3657 21.6333 19.3403C21.623 19.3281 21.614 19.3138 21.6037 19.303C21.5804 19.2752 21.5573 19.2474 21.5332 19.2203C21.5147 19.2002 21.4949 19.1814 21.4763 19.1615L21.457 19.1414L21.4432 19.1271C21.413 19.0975 21.3831 19.0678 21.3516 19.0395C21.3355 19.0247 21.3183 19.0106 21.3013 18.9969C21.2918 18.9884 21.282 18.9802 21.2722 18.9717L21.2618 18.9627C21.2258 18.9336 21.1896 18.9047 21.1522 18.8769C21.1361 18.8653 21.1189 18.8539 21.1025 18.8423L21.0831 18.8293L21.0585 18.8123C21.0193 18.7859 20.9791 18.7593 20.9391 18.7368C20.9319 18.7323 20.9251 18.7274 20.9179 18.7231C20.9057 18.7162 20.8914 18.7109 20.8806 18.7041L20.834 18.6776C20.798 18.6588 20.7622 18.6402 20.7252 18.6233C20.7021 18.6124 20.6788 18.6016 20.6555 18.5918C20.6322 18.582 20.6137 18.5745 20.593 18.5653C20.5644 18.5539 20.5356 18.542 20.5059 18.5317H20.5036V9.24011H18.7677V11.8576L16.9901 10.0805L15.7626 11.308L18.7677 14.3128V18.5317H18.7643C18.7354 18.5425 18.7068 18.5539 18.678 18.5653C18.6573 18.5735 18.6367 18.5817 18.616 18.5918C18.5954 18.6018 18.5694 18.613 18.5459 18.6238C18.5091 18.6408 18.473 18.6593 18.437 18.6781C18.4214 18.6865 18.406 18.6948 18.3907 18.7046C18.3753 18.7144 18.3655 18.7168 18.3534 18.7236C18.3457 18.7281 18.3391 18.7337 18.3314 18.7374C18.2909 18.7618 18.252 18.7869 18.2125 18.8128L18.1882 18.8293L18.1789 18.8361C18.159 18.8496 18.1392 18.8626 18.1198 18.8764C18.0822 18.9045 18.0455 18.9336 18.0089 18.9638L17.9991 18.9723L17.9896 18.9799L17.9811 18.9871L14.3273 16.8779L13.2274 12.774L11.5504 13.2241L12.2012 15.6526L9.93372 14.343L9.06553 15.8463L11.3327 17.1557L8.90454 17.8059L9.35467 19.4832L13.4586 18.3831L17.1124 20.4923C17.1087 20.5135 17.1047 20.5347 17.101 20.5556C17.0957 20.5924 17.0907 20.6294 17.0867 20.6668C17.0843 20.6855 17.0835 20.7044 17.0817 20.7234C17.079 20.7539 17.0759 20.7843 17.0745 20.815C17.0727 20.8505 17.0719 20.8865 17.0719 20.9209C17.0719 20.9297 17.0706 20.9376 17.0706 20.9458C17.0706 20.954 17.0719 20.962 17.0719 20.9707C17.0719 21.0062 17.0719 21.0417 17.0745 21.0766C17.0772 21.1116 17.079 21.1386 17.0817 21.1696C17.0835 21.1884 17.0843 21.2072 17.0867 21.2262C17.0907 21.2625 17.0952 21.2991 17.101 21.3356C17.1042 21.357 17.1087 21.3787 17.1124 21.4002L13.4586 23.5096L9.35467 22.4095L8.90454 24.0863L11.3327 24.7371L9.06553 26.0455L9.93372 27.5497L12.2012 26.2402L11.5504 28.6683L13.2274 29.1185L14.3273 25.0146L17.9811 22.9054L17.9906 22.9131L17.997 22.9186L18.0105 22.9298C18.0465 22.9592 18.0822 22.988 18.1201 23.0153C18.1394 23.0298 18.1596 23.0418 18.1794 23.0566L18.186 23.061C18.1956 23.0671 18.2046 23.074 18.2144 23.0804C18.2525 23.1069 18.2917 23.131 18.3317 23.1543C18.3394 23.1588 18.346 23.1643 18.3537 23.1683C18.3685 23.1773 18.3841 23.1844 18.3995 23.1929C18.4148 23.2014 18.4233 23.2056 18.4349 23.2117L18.4497 23.2199C18.473 23.2321 18.4961 23.2446 18.5199 23.2559C18.5564 23.2739 18.5933 23.2898 18.6301 23.306L18.6412 23.311C18.6642 23.3211 18.687 23.3293 18.7103 23.3375L18.7476 23.3515L18.7677 23.3592V27.5767L15.7626 30.5821L16.9901 31.8096L18.7677 30.0319V32.6499H20.5036V30.0319L22.2809 31.8096L23.5087 30.5821L20.5038 27.5767V23.3592L20.5237 23.3515L20.5616 23.3375C20.5843 23.3285 20.6073 23.3203 20.6301 23.311L20.6423 23.3055C20.6786 23.2896 20.7151 23.2737 20.7511 23.2562C20.7752 23.2443 20.7988 23.2319 20.8221 23.2194L20.8359 23.212C20.848 23.2054 20.8602 23.1993 20.8724 23.1924C20.8846 23.1855 20.9028 23.1765 20.9182 23.168C20.9253 23.1641 20.932 23.1585 20.9394 23.154C20.9794 23.1307 21.0188 23.1061 21.0569 23.0804L21.0855 23.06L21.0924 23.0555C21.112 23.0423 21.1319 23.0291 21.1512 23.0148C21.1885 22.9883 21.2248 22.9586 21.2608 22.9295L21.2748 22.9173L21.2812 22.9117L21.2902 22.9046L24.944 25.0137L26.0441 29.1176L27.7209 28.6675L27.0701 26.2394L29.3373 27.5489L30.2055 26.0447L22.1586 21.3994C22.1626 21.3652 22.1676 21.334 22.1716 21.3025Z" fill="#777E90"/>
<path d="M26.6422 21.3245C26.9992 20.687 27.1832 19.9674 27.176 19.2368C27.1689 18.5063 26.9708 17.7903 26.6014 17.16C26.2321 16.5296 25.7043 16.0069 25.0706 15.6435C24.4368 15.2801 23.719 15.0889 22.9884 15.0886V16.8245C23.416 16.8248 23.836 16.9369 24.2069 17.1496C24.5779 17.3623 24.8868 17.6682 25.103 18.0371C25.3193 18.4059 25.4354 18.8248 25.4399 19.2524C25.4444 19.68 25.337 20.1013 25.1285 20.4746L26.6422 21.3245Z" fill="#777E90"/>
<path d="M21.986 9.21582V10.9516C23.511 10.952 25.0085 11.3574 26.3254 12.1265C27.6423 12.8955 28.7312 14.0006 29.4808 15.3287C30.2305 16.6567 30.6139 18.16 30.5918 19.6849C30.5698 21.2097 30.143 22.7014 29.3553 24.0071L30.8407 24.9058C31.7876 23.3367 32.3007 21.5442 32.3275 19.7116C32.3542 17.8791 31.8937 16.0724 30.9929 14.4763C30.0922 12.8802 28.7835 11.5521 27.201 10.6278C25.6184 9.70348 23.8187 9.21621 21.986 9.21582Z" fill="#777E90"/>
</svg>
